<svg width="258" height="49" viewBox="0 0 258 49" fill="none" xmlns="http://www.w3.org/2000/svg">
<path d="M18.24 2.56H25.024L42.688 48H35.136L30.336 35.648H12.8L8.064 48H0.447998L18.24 2.56ZM28.928 30.336L21.632 10.432L14.08 30.336H28.928Z" fill="#1FAB89"/>
<path d="M54.6305 48L41.8945 14.528H49.1905L58.7265 41.472L68.2625 14.528H75.0465L62.3105 48H54.6305Z" fill="#1FAB89"/>
<path d="M76.8545 38.208C76.8545 36.0747 77.4518 34.2187 78.6465 32.64C79.8838 31.0187 81.5692 29.7813 83.7025 28.928C85.8358 28.032 88.3105 27.584 91.1265 27.584C92.6198 27.584 94.1345 27.6907 95.6705 27.904C97.2492 28.1173 98.6358 28.4587 99.8305 28.928V26.816C99.8305 24.4693 99.1265 22.6347 97.7185 21.312C96.3105 19.9893 94.2838 19.328 91.6385 19.328C89.7612 19.328 87.9905 19.6693 86.3265 20.352C84.6625 20.992 82.8918 21.9093 81.0145 23.104L78.6465 18.368C80.8652 16.8747 83.0838 15.7653 85.3025 15.04C87.5638 14.3147 89.9318 13.952 92.4065 13.952C96.8865 13.952 100.406 15.1467 102.966 17.536C105.569 19.8827 106.87 23.232 106.87 27.584V40.064C106.87 40.8747 106.999 41.4507 107.255 41.792C107.553 42.1333 108.044 42.3253 108.727 42.368V48C108.087 48.128 107.51 48.2133 106.998 48.256C106.486 48.2987 106.06 48.32 105.718 48.32C104.225 48.32 103.095 47.9573 102.326 47.232C101.558 46.5067 101.11 45.6533 100.982 44.672L100.79 42.752C99.3398 44.6293 97.4838 46.08 95.2225 47.104C92.9612 48.128 90.6785 48.64 88.3745 48.64C86.1558 48.64 84.1718 48.192 82.4225 47.296C80.6732 46.3573 79.3078 45.0987 78.3265 43.52C77.3452 41.9413 76.8545 40.1707 76.8545 38.208ZM98.1665 40.256C98.6785 39.7013 99.0838 39.1467 99.3825 38.592C99.6812 38.0373 99.8305 37.5467 99.8305 37.12V33.28C98.6358 32.8107 97.3772 32.4693 96.0545 32.256C94.7318 32 93.4305 31.872 92.1505 31.872C89.5905 31.872 87.4998 32.384 85.8785 33.408C84.2998 34.432 83.5105 35.84 83.5105 37.632C83.5105 38.6133 83.7665 39.552 84.2785 40.448C84.8332 41.344 85.6012 42.0693 86.5825 42.624C87.6065 43.1787 88.8652 43.456 90.3585 43.456C91.8945 43.456 93.3665 43.1573 94.7745 42.56C96.1825 41.9627 97.3132 41.1947 98.1665 40.256Z" fill="#1FAB89"/>
<path d="M115.475 1.28H122.515V38.336C122.515 40.0427 122.772 41.1307 123.284 41.6C123.796 42.0693 124.435 42.304 125.203 42.304C126.057 42.304 126.846 42.2187 127.571 42.048C128.339 41.8773 129.001 41.664 129.555 41.408L130.579 46.976C129.555 47.4027 128.339 47.7653 126.931 48.064C125.523 48.3627 124.265 48.512 123.155 48.512C120.766 48.512 118.889 47.8507 117.523 46.528C116.158 45.1627 115.475 43.2853 115.475 40.896V1.28Z" fill="#1FAB89"/>
<path d="M134.661 48V14.528H141.701V48H134.661ZM134.661 9.024V1.28H141.701V9.024H134.661Z" fill="#1FAB89"/>
<path d="M152.081 20.8H147.602V15.36H152.081V14.016C152.081 12.2667 152.359 10.6027 152.913 9.024C153.468 7.40267 154.3 5.97333 155.41 4.736C156.519 3.456 157.863 2.45333 159.441 1.728C161.063 1.00267 162.94 0.639999 165.074 0.639999C166.652 0.639999 168.124 0.810665 169.49 1.152C170.898 1.49333 172.177 1.96266 173.329 2.56C174.524 3.11466 175.569 3.712 176.465 4.352L173.585 9.6C172.647 8.74667 171.452 8.04267 170.001 7.488C168.551 6.93333 167.057 6.656 165.521 6.656C164.071 6.656 162.855 6.99733 161.874 7.68C160.935 8.36266 160.231 9.25867 159.762 10.368C159.335 11.4773 159.122 12.6293 159.122 13.824V15.36H176.658V48H169.617V20.8H159.122V48H152.081V20.8Z" fill="white"/>
<path d="M215.115 48H208.075V29.248C208.075 26.1333 207.563 23.8507 206.539 22.4C205.558 20.9493 204.086 20.224 202.123 20.224C200.758 20.224 199.392 20.5653 198.027 21.248C196.704 21.9307 195.51 22.8693 194.443 24.064C193.376 25.216 192.608 26.56 192.139 28.096V48H185.099V14.528H191.499V21.248C192.352 19.7547 193.462 18.4747 194.827 17.408C196.235 16.2987 197.814 15.4453 199.563 14.848C201.312 14.2507 203.168 13.952 205.131 13.952C207.136 13.952 208.779 14.3147 210.059 15.04C211.382 15.7653 212.406 16.768 213.131 18.048C213.899 19.2853 214.411 20.736 214.667 22.4C214.966 24.0213 215.115 25.7493 215.115 27.584V48Z" fill="white"/>
<path d="M221.174 31.296C221.174 28.096 221.814 25.1947 223.094 22.592C224.417 19.9467 226.209 17.856 228.471 16.32C230.732 14.7413 233.335 13.952 236.279 13.952C238.839 13.952 241.142 14.6133 243.19 15.936C245.281 17.2587 246.903 18.9013 248.055 20.864V1.28H255.094V40.064C255.094 40.8747 255.244 41.4507 255.542 41.792C255.841 42.1333 256.332 42.3253 257.014 42.368V48C255.692 48.2133 254.668 48.32 253.943 48.32C252.62 48.32 251.489 47.936 250.55 47.168C249.654 46.4 249.185 45.4827 249.143 44.416L249.078 41.92C247.798 44.0533 246.071 45.7173 243.895 46.912C241.719 48.064 239.457 48.64 237.111 48.64C234.807 48.64 232.673 48.192 230.71 47.296C228.79 46.4 227.105 45.1413 225.654 43.52C224.246 41.8987 223.137 40.0427 222.326 37.952C221.558 35.8613 221.174 33.6427 221.174 31.296ZM248.055 35.968V27.2C247.585 25.8347 246.817 24.6187 245.751 23.552C244.727 22.4427 243.553 21.568 242.23 20.928C240.95 20.288 239.671 19.968 238.391 19.968C236.897 19.968 235.532 20.288 234.294 20.928C233.1 21.568 232.054 22.4213 231.158 23.488C230.305 24.5547 229.644 25.7707 229.174 27.136C228.705 28.5013 228.471 29.9307 228.471 31.424C228.471 32.96 228.726 34.4107 229.238 35.776C229.75 37.0987 230.476 38.2933 231.415 39.36C232.396 40.384 233.505 41.1947 234.742 41.792C236.022 42.3467 237.409 42.624 238.902 42.624C239.841 42.624 240.78 42.4533 241.718 42.112C242.7 41.7707 243.617 41.3013 244.471 40.704C245.367 40.1067 246.113 39.4027 246.71 38.592C247.35 37.7813 247.799 36.9067 248.055 35.968Z" fill="white"/>
</svg>
